Coordinates
version=1
nRows=16
nColumns=33
inDegrees=yes

Units are S.I. units (second, meters, Newtons, ...)
Angles are in degrees.

endheader
time	ground_thorax_rot_x	ground_thorax_rot_y	ground_thorax_rot_z	ground_thorax_tx	ground_thorax_ty	ground_thorax_tz	clav_prot_r	clav_elev_r	scapula_abduction_r	scapula_elevation_r	scapula_upward_rot_r	scapula_winging_r	shoulder_elv_r	plane_of_elev_r	axial_rot_r	elbow_flexion_r	pro_sup_r	wrist_flex_r	wrist_dev_r	clav_prot_l	clav_elev_l	scapula_abduction_l	scapula_elevation_l	scapula_upward_rot_l	scapula_winging_l	shoulder_elv_l	plane_of_elev_l	axial_rot_l	elbow_flexion_l	pro_sup_l	wrist_flex_l	wrist_dev_l
      5.92000000	     -5.15718318	      2.69493413	     11.82735736	     -0.11123095	      1.02514601	      0.00617569	     13.91193643	    -15.10719862	     31.25006660	    -12.37595535	     13.47358068	     -6.67286609	     -3.62085961	    -59.18784567	    124.57607593	    -57.20400794	   -158.04547388	      5.15096287	      7.44305955	     23.43228619	    -11.07486326	    -34.82742544	     -6.35955657	    -25.69435616	     10.81385152	     61.54607403	     -0.60603838	     16.29960488	     21.20163642	     22.71413300	     21.04478064	     -6.92682976
      5.93000000	     -5.35870899	      2.58581092	     11.76708080	     -0.11082463	      1.02566492	      0.00596234	     14.15864716	    -15.41775651	     31.90642463	    -12.78945470	     13.92528423	     -6.73071736	     -3.18203853	    -58.66165521	    124.54269278	    -55.60905500	   -157.79741557	      4.82014515	      7.50354720	     23.75357595	    -11.28782973	    -35.33820435	     -6.06892086	    -25.49632636	     11.07818477	     61.75194267	     -0.41439793	     15.79077000	     19.99153073	     23.03159560	     20.90015602	     -6.80520333
      5.94000000	     -5.47809396	      2.50412174	     11.65708055	     -0.11038271	      1.02622356	      0.00574264	     14.32179303	    -15.58579145	     32.53755545	    -13.12959468	     14.54158524	     -6.84708690	     -2.74758230	    -58.16222768	    124.60044578	    -53.95542182	   -157.49957512	      4.49759337	      7.56981938	     24.07279422	    -11.45420370	    -35.85154760	     -5.81023261	    -25.28011088	     11.35800667	     61.82423945	     -0.10443506	     15.47305343	     18.81533216	     23.34303574	     20.59771664	     -6.69888109
      5.95000000	     -5.21069987	      2.58745173	     11.62075039	     -0.11024531	      1.02563595	      0.00583352	     14.46498067	    -14.39310761	     33.59734575	    -12.45957184	     15.79284323	     -7.96060376	     -2.65911574	    -57.24157544	    124.80934870	    -51.96199016	   -155.94245292	      4.48680254	      7.59114437	     24.88689194	    -11.43006143	    -37.20127106	     -5.73604941	    -25.16791620	     12.18904241	     61.12252122	      0.76716117	     16.02615553	     17.59918702	     24.16906392	     18.38506311	     -7.19253131
      5.96000000	     -5.35826896	      2.48403715	     11.58044298	     -0.10988301	      1.02629485	      0.00562280	     14.67503896	    -14.70270971	     34.23052886	    -12.87801222	     16.29008801	     -8.00345504	     -2.27639787	    -56.85334004	    124.71308184	    -50.36928831	   -155.68567879	      4.17543742	      7.60805353	     25.11954726	    -11.56310920	    -37.57055651	     -5.55485194	    -25.04633361	     12.38699765	     61.24845486	      0.90773961	     15.51651859	     16.75440476	     24.39497023	     18.31556172	     -7.09217143
      5.97000000	     -5.35451569	      2.49759207	     11.22322859	     -0.10942656	      1.02659430	      0.00555066	     14.86583255	    -14.46223747	     35.11062482	    -12.93075629	     17.18425411	     -8.46201683	     -1.94245583	    -56.17083602	    124.48447601	    -48.68447540	   -154.90584315	      4.02189367	      7.41973797	     25.47519356	    -11.56362382	    -38.16406534	     -5.42782297	    -24.81441106	     12.76443074	     61.20900108	      1.33800233	     15.22146774	     16.08256129	     24.73540435	     17.61679192	     -7.13238565
      5.98000000	     -5.43302874	      2.37970961	     11.43063925	     -0.10924680	      1.02708652	      0.00540431	     14.99271816	    -14.58797071	     35.65500050	    -13.19956738	     17.73031462	     -8.57085370	     -1.76914470	    -55.90356502	    124.53249586	    -47.04834068	   -154.54688492	      3.73819344	      7.38044839	     25.67203964	    -11.63377226	    -38.47787013	     -5.34799564	    -24.79301940	     12.94152499	     61.10267569	      1.41648506	     14.84286689	     15.34283837	     24.93629969	     17.40066404	     -7.04628062
      5.99000000	     -5.47455681	      2.35565269	     11.29488597	     -0.10898151	      1.02756537	      0.00527123	     15.13010581	    -14.59361877	     36.31111769	    -13.40102313	     18.41429971	     -8.78792046	     -1.40461512	    -55.45237576	    124.46535213	    -45.40818684	   -154.09740991	      3.46287236	      7.21922147	     25.89485199	    -11.62831242	    -38.84918668	     -5.28144796	    -24.66579205	     13.17998776	     61.05973943	      1.65023901	     14.42683271	     14.79742180	     25.12040453	     17.05053017	     -6.99613053
      6.00000000	     -5.10306689	      2.39018252	     11.38302445	     -0.10887254	      1.02663375	      0.00564609	     15.46230001	    -13.04093030	     37.79358364	    -12.42822940	     19.77701977	    -10.29975566	     -2.01725971	    -54.66266976	    123.90402067	    -43.51874043	   -151.58267123	      3.77248691	      5.98682427	     26.35539232	    -11.42557754	    -39.64372773	     -5.31374328	    -24.42567696	     13.74378793	     60.09439473	      2.03084041	     14.41534197	     14.36882884	     25.21449528	     15.00041748	     -7.19064753
      6.01000000	     -5.16679562	      2.36411482	     11.33536936	     -0.10866371	      1.02728271	      0.00546333	     15.62440160	    -13.30589610	     38.35823184	    -12.79022039	     20.26590891	    -10.33988621	     -1.69491560	    -54.50088196	    123.72860648	    -42.22126073	   -151.32815338	      3.50563840	      6.03143534	     26.45954894	    -11.46816511	    -39.81059031	     -5.25220122	    -24.38195310	     13.83844241	     60.15495804	      2.09812933	     13.98788451	     13.96340332	     25.24390863	     15.02032461	     -7.13839186
      6.02000000	     -5.21584306	      2.38632837	     11.27521022	     -0.10843946	      1.02774668	      0.00530737	     15.76366461	    -13.43547487	     38.89650424	    -13.03550827	     20.76077281	    -10.44768903	     -1.41617418	    -54.28737305	    123.57835098	    -40.96738526	   -150.96721751	      3.24171322	      5.93766927	     26.54967243	    -11.43508411	    -39.96578501	     -5.24388209	    -24.31515179	     13.94717946	     60.13290279	      2.19622512	     13.56537171	     13.67279382	     25.21504379	     14.95224573	     -7.11253742
      6.03000000	     -5.22143444	      2.40193017	     11.25228863	     -0.10830172	      1.02809201	      0.00519800	     15.88443337	    -13.48346890	     39.40564889	    -13.20671606	     21.24738362	    -10.59185767	     -1.17530831	    -54.06129469	    123.42454508	    -39.78983753	   -150.51573892	      2.98796451	      5.72658880	     26.63113485	    -11.36915100	    -40.11177275	     -5.26436657	    -24.25092563	     14.06030998	     60.02411260	      2.28327404	     13.13313662	     13.41155057	     25.12708397	     14.83370694	     -7.10099582
      6.04000000	     -5.27907671	      2.48145448	     11.21945317	     -0.10832003	      1.02823102	      0.00510381	     16.05006377	    -13.41054133	     40.01202403	    -13.27794739	     21.76449092	    -10.85727098	     -1.04181127	    -53.79368450	    123.24021762	    -38.58299853	   -149.79294084	      2.74027856	      5.31103266	     26.70584123	    -11.23938388	    -40.26069964	     -5.29568654	    -24.09390871	     14.19640524	     59.89559617	      2.35278188	     12.63709393	     13.17285121	     24.89309301	     14.60604579	     -7.11224017
      6.05000000	     -4.70698442	      2.38992373	     11.14458382	     -0.10782424	      1.02765417	      0.00562233	     16.60060626	    -11.92395270	     42.20615449	    -12.47680470	     23.63440318	    -12.57595089	     -2.42728345	    -53.92926012	    121.35475416	    -37.45807508	   -145.32822245	      3.37911999	      4.42799943	     26.40105431	    -11.37421914	    -39.77337319	     -4.96817962	    -23.58500244	     13.88093459	     59.21572051	      2.05731249	     11.96465527	     12.94403533	     22.28609642	     13.03881773	     -6.92529611
      6.06000000	     -4.79895973	      2.46335322	     11.24598752	     -0.10782271	      1.02774312	      0.00546534	     16.75133731	    -12.05590456	     42.53694083	    -12.62282345	     23.78646230	    -12.63580269	     -2.19945658	    -53.78150375	    121.30876350	    -36.64461760	   -145.16026649	      3.09146517	      4.40606662	     26.35966223	    -11.21580066	    -39.72581514	     -5.11405722	    -23.60968558	     13.89129199	     59.14159164	      2.12888944	     11.45700972	     12.90661967	     22.30561321	     13.09506430	     -6.94184453
      6.07000000	     -4.72769879	      2.63371723	     11.27647133	     -0.10762961	      1.02792498	      0.00536225	     16.82795436	    -12.13369629	     42.72163033	    -12.71523384	     23.89522644	    -12.65782625	     -1.97303306	    -53.75740977	    121.19685801	    -36.16278758	   -145.00239381	      2.91352662	      4.28528786	     26.32723664	    -11.18040815	    -39.67938759	     -5.14312314	    -23.60362214	     13.87079788	     58.97413478	      2.26901325	     11.18707482	     12.91350220	     22.27375884	     13.10243998	     -6.96382239
